<?xml version="1.0" encoding="utf-8"?>
<!-- Generator: Adobe Illustrator 25.4.1, SVG Export Plug-In . SVG Version: 6.00 Build 0)  -->
<svg version="1.1" xmlns="http://www.w3.org/2000/svg" xmlns:xlink="http://www.w3.org/1999/xlink" x="0px" y="0px"
	 viewBox="0 0 1080 1080" style="enable-background:new 0 0 1080 1080;" xml:space="preserve">
<style type="text/css">
	.st0{display:none;}
	.st1{display:inline;fill:#A1FFFF;}
	.st2{display:none;opacity:0.4;}
	.st3{display:inline;}
	.st4{display:none;fill:#FFFFFF;}
	.st5{fill:#FFFFFF;}
	.st6{fill:#FFFFFF;stroke:#FFFFFF;stroke-miterlimit:10;}
</style>
<g id="Layer_3" class="st0">
	<rect x="-113.07" y="-14.39" class="st1" width="1283.39" height="1112.18"/>
</g>
<g id="Layer_1">
	<g class="st2">
		<g class="st3">
			<g>
				<path d="M1868.69-68.11c-76.12,49.43-146.2,107.26-219.09,161.16c-20.47,15.14-41.18,29.95-62.29,44.2
					c-6.37,4.3-0.37,14.7,6.06,10.36c75.21-50.76,145.05-108.86,218.5-162.05c20.62-14.93,41.53-29.44,62.88-43.31
					C1881.2-61.93,1875.2-72.33,1868.69-68.11L1868.69-68.11z"/>
			</g>
		</g>
		<g class="st3">
			<g>
				<path d="M1593.36,146.64c49.13-28.87,107.01-41.38,162.91-49.21c51.7-7.24,110.44-5.01,148.34,35.92
					c15.88,17.15,24.34,39.39,22.28,62.82c-2.25,25.58-16.24,49.16-35.04,66.13c-19.18,17.32-43.34,28.36-68.01,35.35
					c-27.04,7.66-56.11,11.21-83.9,5.62c-26.17-5.26-51.2-19.2-66.65-41.43c-8.08-11.63-13.07-24.9-14.32-39.03
					c-1.5-16.9,1.18-33.76,4.13-50.35c1.34-7.55-10.22-10.79-11.57-3.19c-5.26,29.56-9.01,60.3,5.09,88.09
					c11.38,22.42,31.92,39.77,54.83,49.59c27.92,11.97,58.99,13.02,88.65,8.26c28.26-4.53,56.72-14.04,80.86-29.64
					c23.34-15.09,42.18-36.27,51.91-62.5c9.24-24.9,8.36-52.54-4.03-76.18c-11.52-21.99-31.64-39.1-53.84-49.71
					c-26.89-12.85-57.1-16.23-86.61-14.84c-31.49,1.48-63.03,7.38-93.75,14.22c-29.84,6.65-59.3,15.55-86.91,28.81
					c-6.97,3.35-13.77,7-20.44,10.91C1580.65,140.19,1586.68,150.57,1593.36,146.64L1593.36,146.64z"/>
			</g>
		</g>
		<g class="st3">
			<g>
				<path d="M1655.17,160.29c-19.54,21.01-41.64,39.31-65.98,54.51c-6.54,4.08-0.52,14.47,6.06,10.36
					c25.16-15.72,48.2-34.66,68.41-56.39C1668.91,163.13,1660.45,154.63,1655.17,160.29L1655.17,160.29z"/>
			</g>
		</g>
		<g class="st3">
			<g>
				<path d="M1584.08,218.16c-5.14,35.06-3.84,71.51,8.41,105.06c10.51,28.77,28.78,54.4,53.61,72.52
					c28.49,20.8,62.69,25.52,97.07,27.23c35.03,1.75,68.79-3.06,101.2-16.73c34.13-14.41,64.59-36.3,91.52-61.56
					c5.64-5.29-2.85-13.77-8.49-8.49c-45.53,42.71-102.11,74.86-165.91,75.23c-32.88,0.19-68.95-1.84-98.03-18.66
					c-24.25-14.03-43.04-36.29-54.79-61.56c-15.79-33.96-18.39-73.16-13.01-109.84C1596.75,213.79,1585.19,210.53,1584.08,218.16
					L1584.08,218.16z"/>
			</g>
		</g>
		<g class="st3">
			<g>
				<path d="M1802.42,208.54c12.23,22.18,25.69,43.64,40.32,64.31c4.43,6.25,14.84,0.26,10.36-6.06
					c-14.64-20.67-28.09-42.13-40.32-64.31C1809.05,195.72,1798.68,201.76,1802.42,208.54L1802.42,208.54z"/>
			</g>
		</g>
		<g class="st3">
			<g>
				<path d="M1820.59,203.25c8.15-8.26,17.13-15.53,27.05-21.56c-0.1,0.06,3.9-1.98,2.68-2.28c0.49,0.12,1.46,2.31,1.71,2.71
					c1.68,2.71,3.34,5.43,4.99,8.16c3.47,5.72,6.89,11.48,10.27,17.26c3.22,5.51,6.39,11.04,9.52,16.59
					c1.26,2.24,3.68,5.19,3.97,7.8c0.3,2.8-2.61,3.83-4.79,5.4c-10.9,7.87-21.81,15.74-32.71,23.61c-6.2,4.48-0.22,14.89,6.06,10.36
					c7.45-5.38,14.89-10.75,22.34-16.13c3.19-2.3,6.38-4.61,9.57-6.91c3.02-2.18,6.72-4.27,9.06-7.23
					c4.61-5.86,2.37-12.85-0.8-18.79c-4.04-7.59-8.48-15-12.82-22.41c-4.35-7.43-8.78-14.8-13.29-22.14
					c-3.35-5.44-7.32-11.73-14.78-9.9c-6.55,1.61-13.15,7.3-18.46,11.26c-6.41,4.79-12.43,10.01-18.05,15.71
					C1806.68,200.27,1815.16,208.76,1820.59,203.25L1820.59,203.25z"/>
			</g>
		</g>
		<g class="st3">
			<g>
				<path d="M1927.6,383.96c9.2,11.15,18.39,22.29,27.59,33.44c4.55,5.52,8.84,11.56,13.79,16.72c4.03,4.2,9.4,4.25,13.64,0.27
					c4.36-4.08,7.98-9.05,12.28-13.24c4.44-4.32,9.12-8.41,14.03-12.18c9.77-7.48,20.44-13.74,31.62-18.87
					c4.83-2.22,3.24-9.72-1.43-10.97c-21.71-5.8-32.29-29.79-47.39-44.36c-3.98-3.84-8.48-7.7-13.44-10.22
					c-7.92-4.02-12.83,2.24-17.93,7.49c-12.26,12.61-24.51,25.22-36.77,37.84c-5.39,5.54,3.09,14.04,8.49,8.49
					c11.33-11.66,22.66-23.32,34-34.98c1.39-1.43,2.78-2.86,4.16-4.28c0.56-0.58,4.54-3.89,2.72-3.82c1.5-0.05,4.83,3.18,6.02,4.15
					c3.98,3.24,7.53,7.01,10.88,10.89c13.47,15.55,24.9,34.74,46.06,40.39c-0.48-3.66-0.96-7.31-1.43-10.97
					c-20.27,9.32-38.75,22.57-53.94,38.93c-1.69,1.82-4.53,4.04-5.55,6.29c-0.29,0.32-0.58,0.64-0.87,0.95
					c1.11-0.09,2.22-0.18,3.33-0.27c0.1-0.3-3.51-4.25-3.76-4.56c-3.97-4.81-7.94-9.63-11.91-14.44
					c-8.57-10.39-17.14-20.77-25.71-31.16C1931.17,369.52,1922.72,378.05,1927.6,383.96L1927.6,383.96z"/>
			</g>
		</g>
		<g class="st3">
			<g>
				<path d="M1861.19-57.04c21.18,16.79,42.98,32.76,65.42,47.82c6.43,4.32,12.44-6.08,6.06-10.36
					c-21.59-14.49-42.62-29.79-62.99-45.95C1863.69-70.27,1855.14-61.83,1861.19-57.04L1861.19-57.04z"/>
			</g>
		</g>
		<g class="st3">
			<g>
				<path d="M1927.42-18.47c-18.04,12.22-36.76,23.36-56.1,33.4c-4.87,2.53-3.16,9.4,1.43,10.97c23.52,8.03,47.22,16.34,68.6,29.25
					c22.27,13.46,39.69,32.06,49.65,56.29c11.06,26.9,16.2,57.66,16.73,86.63c0.53,29.08-4.71,59.98-17.64,86.24
					c-7.16,14.55-17.83,23.78-31.47,32.16c-14.77,9.08-29.63,18.02-44.44,27.03c-6.59,4.01-0.57,14.39,6.06,10.36
					c14.34-8.72,28.69-17.41,43.01-26.15c12.28-7.5,23.71-15.61,31.77-27.79c8.17-12.33,13.19-27.01,17.09-41.18
					c4.25-15.44,6.74-31.44,7.46-47.44c1.41-31.32-3.56-64.43-13.66-94.12c-9.16-26.94-25.07-49.19-48.28-65.71
					c-24.49-17.44-53.46-27.52-81.67-37.15c0.48,3.66,0.96,7.31,1.43,10.97c19.34-10.04,38.06-21.18,56.1-33.4
					C1939.83-12.42,1933.83-22.82,1927.42-18.47L1927.42-18.47z"/>
			</g>
		</g>
		<g class="st3">
			<g>
				<path d="M1599.1,145.53c15.6,4.5,31.19,9.01,46.79,13.51c6.6,1.9,13.32,4.39,20.12,5.43c7.49,1.14,13.66-1.19,19.72-5.45
					c25.59-17.97,50.43-37.03,75.82-55.29c5.46-3.92,11.1-7.86,18-8.45c7.3-0.63,14.94,0.76,22.17,1.73
					c12.58,1.7,25.16,4.14,37.13,8.41c11.92,4.25,23.03,10.7,31.84,19.86c9.61,9.99,16.36,22.42,22.48,34.75
					c13.68,27.59,24.03,60.38,11.59,90.3c-2.96,7.12,8.64,10.23,11.57,3.19c11.33-27.24,5.22-57.62-5.71-83.94
					c-10.79-25.99-25.04-52.84-50.18-67.38c-11.31-6.54-23.93-10.71-36.66-13.49c-13.3-2.91-27.85-5.63-41.51-5.53
					c-15.71,0.12-27.21,10.49-39.24,19.27c-13.53,9.87-27.06,19.74-40.59,29.61c-7.58,5.53-15.09,11.2-22.77,16.6
					c-3.16,2.22-6.27,4.36-10.29,4.19c-4.29-0.17-8.73-2.04-12.82-3.22c-18.09-5.22-36.18-10.45-54.28-15.67
					C1594.86,131.81,1591.69,143.38,1599.1,145.53L1599.1,145.53z"/>
			</g>
		</g>
	</g>
	<path class="st4" d="M656.69,646.05c-3.67-7.09-7.69-14.09-12.05-20.95l11.3,17.58C656.61,643.72,656.84,644.91,656.69,646.05z"/>
	<polygon class="st4" points="488.25,626.44 488.25,626.45 488.24,626.44 	"/>
	<path class="st4" d="M899.88,502.57c4.2,8.07,7.99,16.26,11.38,24.55C908.23,518.74,904.44,510.53,899.88,502.57z M899.88,502.57
		c4.2,8.07,7.99,16.26,11.38,24.55C908.23,518.74,904.44,510.53,899.88,502.57z M899.88,502.57c4.2,8.07,7.99,16.26,11.38,24.55
		C908.23,518.74,904.44,510.53,899.88,502.57z M899.88,502.57c4.2,8.07,7.99,16.26,11.38,24.55
		C908.23,518.74,904.44,510.53,899.88,502.57z M899.88,502.57c4.2,8.07,7.99,16.26,11.38,24.55
		C908.23,518.74,904.44,510.53,899.88,502.57z M488.24,626.44l0.01,0.01v-0.01H488.24z M655.94,642.68l-11.3-17.58
		c4.36,6.86,8.38,13.86,12.05,20.95C656.84,644.91,656.61,643.72,655.94,642.68z M899.88,502.57c4.2,8.07,7.99,16.26,11.38,24.55
		C908.23,518.74,904.44,510.53,899.88,502.57z M899.88,502.57c4.2,8.07,7.99,16.26,11.38,24.55
		C908.23,518.74,904.44,510.53,899.88,502.57z M899.88,502.57c4.2,8.07,7.99,16.26,11.38,24.55
		C908.23,518.74,904.44,510.53,899.88,502.57z"/>
	<path class="st0" d="M656.69,646.05c-3.67-7.09-7.69-14.09-12.05-20.95l11.3,17.58C656.61,643.72,656.84,644.91,656.69,646.05z"/>
	<path class="st0" d="M911.26,527.12c-3.39-8.29-7.18-16.48-11.38-24.55C904.44,510.53,908.23,518.74,911.26,527.12z"/>
	<path class="st4" d="M656.69,646.05c-3.67-7.09-7.69-14.09-12.05-20.95l11.3,17.58C656.61,643.72,656.84,644.91,656.69,646.05z"/>
	<path class="st0" d="M656.69,646.05c-3.67-7.09-7.69-14.09-12.05-20.95l11.3,17.58C656.61,643.72,656.84,644.91,656.69,646.05z"/>
	<path class="st4" d="M488.24,626.44l0.01,0.01v-0.01H488.24z M488.24,626.44l0.01,0.01v-0.01H488.24z M655.94,642.68l-11.3-17.58
		c4.36,6.86,8.38,13.86,12.05,20.95C656.84,644.91,656.61,643.72,655.94,642.68z M488.24,626.44l0.01,0.01v-0.01H488.24z"/>
	<path class="st4" d="M656.69,646.05c-3.67-7.09-7.69-14.09-12.05-20.95l11.3,17.58C656.61,643.72,656.84,644.91,656.69,646.05z"/>
	<path class="st4" d="M911.26,527.12c-3.39-8.29-7.18-16.48-11.38-24.55C904.44,510.53,908.23,518.74,911.26,527.12z"/>
	<polygon class="st0" points="488.25,626.44 488.25,626.45 488.24,626.44 	"/>
	<g>
		<path class="st5" d="M712.64,336.63c-33.31-3.84-67.54-0.85-100.44,9.47c0.61-24.41-5.83-49.25-20.03-71.33
			c-37.7-58.67-115.83-75.66-174.5-37.95c-12.58,8.09-23.25,18.03-31.86,29.26l-22.72-35.35c-11.81-18.39-32.22-27.95-52.58-26.8
			c-0.43,0.03-0.85,0.05-1.28,0.08c1.13-1.43,2.27-2.86,3.43-4.27c14.52-17.63,31.99-33.35,52.25-46.37
			c104.88-67.41,244.54-37.03,311.95,67.86C699.9,257.05,711.52,296.95,712.64,336.63z"/>
		<path class="st5" d="M806.96,768.33c-12.96,8.33-26.46,15.17-40.29,20.56c-26.69,10.4-54.6,15.4-82.29,15.3h-0.01l-41.34-21.31
			c4.88-26.2,5.64-53.2,2.04-79.93c35.87,11.46,76.38,7.41,110.53-14.53c52.33-33.63,72.63-98.33,52.29-154.44
			c-2.53-6.99-5.69-13.83-9.49-20.47c-0.02-0.03-0.03-0.05-0.04-0.08c-1.1-1.92-2.25-3.82-3.46-5.69
			c-24.54-38.17-65.59-59.29-107.78-60.04c-24.96-0.45-50.32,6.24-72.9,20.74c-26.41,16.97-44.66,41.86-53.65,69.57l-46.21-71.89
			l-12.65-19.68c16.09-22.35,36.58-42.11,61.15-57.9c4.84-3.11,9.76-6.02,14.75-8.72c10.61-5.74,21.52-10.55,32.62-14.45
			c33.31-11.71,68.29-15.17,102.21-10.99c64.25,7.93,124.63,43.3,162.38,102.01C942.23,561.26,911.85,700.93,806.96,768.33z"/>
		<path class="st5" d="M455.22,616.8L455.22,616.8L455.22,616.8c-3.75-1.89-7.58-3.59-11.46-5.1v-0.01
			c-35.86-13.97-77.28-12.27-112.99,7.57c-2.52,1.38-5,2.88-7.46,4.45c-50.68,32.57-71.88,93.76-56.01,148.83
			c3.5,12.15,8.8,23.99,15.98,35.17c37.13,57.79,111.46,77.24,171.52,47.15l93.14,48.01c-9.42,8.66-19.7,16.62-30.82,23.77
			c-104.88,67.4-244.54,37.03-311.95-67.86c-7.19-11.18-13.26-22.75-18.25-34.59c-41.84-99.24-7.6-217.14,86.11-277.36
			c22.06-14.17,45.65-24.03,69.8-29.77c5.1-1.22,10.22-2.24,15.37-3.09c9.66-1.59,19.38-2.55,29.09-2.88
			c4.2-0.14,8.41-0.16,12.61-0.07c16.67,0.37,33.24,2.58,49.37,6.57c5.72,1.41,11.38,3.04,16.97,4.89v0.01
			c26.32,8.72,51.14,22.3,72.98,40.43c5.16,4.28,10.15,8.81,14.97,13.61v0.01c11.22,11.16,21.44,23.68,30.39,37.51
			c0.13,0.19,0.26,0.39,0.38,0.58c0.01,0.02,0.02,0.04,0.03,0.06c0.11,0.18,0.22,0.34,0.33,0.52c0.1,0.15,0.19,0.31,0.29,0.46
			c3.64,5.72,6.99,11.56,10.05,17.47c6.17,11.91,11.18,24.17,15.06,36.63c2.03,6.52,3.75,13.11,5.17,19.73
			c5.72,26.75,6.44,54.08,2.44,80.65l-90.4-46.61c-0.54-5.93-1.48-11.85-2.83-17.72l-0.01-0.01c-1.64-7.15-3.9-14.23-6.79-21.16
			c-2.98-7.16-6.63-14.16-10.97-20.92c-8.55-13.3-19.05-24.56-30.91-33.66c-4.24-3.26-8.65-6.24-13.21-8.93
			C460.59,619.6,457.93,618.15,455.22,616.8L455.22,616.8z"/>
		<path class="st5" d="M524.1,519.96c-15.81-9.39-32.53-16.97-49.83-22.69c-5.61-1.85-11.27-3.5-16.99-4.95
			c-24.15-6.14-49.19-8.72-74.24-7.54c-2.48,0.11-4.98,0.27-7.46,0.46c-1.54,0.12-3.09,0.25-4.64,0.39l-45.43-70.69l-27.05,52.47
			l-19.44,37.71l-13.33-6.87c-44.57-22.97-63.35-76.24-44.17-121.68l35.92-69.67l5.64-10.93l9.68-18.78v-0.01l27.03-52.42l0.18-0.34
			c19.97-0.79,39.82,8.72,51.41,26.75l22.14,34.44l81.67,127.08l23.47,36.52l10.63,16.55l2.23,3.46L524.1,519.96z"/>
		<path class="st6" d="M724.78,847.25l-21.98,42.62c-15.88,30.81-53.74,42.91-84.56,27.03l-31.43-16.21l-24.27-12.51l-35.01-18.05
			h-0.01l-53.04-27.35l-64.26-33.12l-0.01-0.01l-12.86-6.63l2.06-4l19.91-38.62c14.21-27.55,45.95-40.14,74.54-31.16v0.01
			c3.39,1.06,6.74,2.43,10.01,4.12l24.19,12.47l13.14,6.77l0.07,0.04l73.07,37.66l11.72,6.04l12.41,6.4l36.61,18.87h0.01
			l33.12,17.08L724.78,847.25z"/>
	</g>
</g>
<g id="Layer_2" class="st0">
	<g class="st3">
		<g>
			<g>
				<path d="M1503.59,411.35c-29.55-8-60.91-3.66-89.22,6.96c-26.1,9.8-50.37,24.57-71.28,42.99
					c-19.6,17.27-36.47,38.07-48.01,61.58c-11.57,23.59-17.94,50.36-15.58,76.7c1.35,15.06,5.92,29.58,15.37,41.55
					c8.74,11.07,20.59,19.24,32.48,26.58c12.98,8.01,26.21,15.92,40.25,21.96c14.09,6.06,29.26,10.2,44.73,9.26
					c16.05-0.97,31.43-6.94,46.09-13.15c13.56-5.74,26.74-12.71,37.87-22.45c21.14-18.5,30.74-45.76,34.96-72.82
					c2.3-14.74,3.24-29.65,3.81-44.54c0.65-17.19,0.62-34.41-0.11-51.59c-0.61-14.51-1.2-29.25-4.02-43.53
					c-2.29-11.59-6.28-23.3-14.04-32.41c-3.6-4.23-8.08-7.71-13.1-10.09c-1.22-0.58-2.7-0.34-3.42,0.9
					c-0.64,1.09-0.33,2.84,0.9,3.42c21.57,10.24,25.7,37.84,27.34,59.07c2.53,32.68,2.8,65.75,0.05,98.43
					c-2.19,25.98-7.21,53.14-22.52,74.86c-8.04,11.41-18.93,20.23-30.99,27.09c-6.29,3.58-12.86,6.68-19.53,9.48
					c-7,2.93-14.11,5.69-21.36,7.95c-7.45,2.33-15.11,4.08-22.92,4.44c-7.47,0.35-14.92-0.49-22.18-2.23
					c-14.72-3.52-28.38-10.35-41.47-17.8c-12.13-6.9-24.54-13.94-35.44-22.7c-5.23-4.2-10.18-8.88-14.26-14.24
					c-4.27-5.62-7.51-11.93-9.69-18.63c-4.37-13.4-4.92-27.83-3.63-41.77c1.14-12.39,4.07-24.6,8.36-36.27
					c8.72-23.72,23.24-45.1,40.74-63.21c18.08-18.71,39.47-34.14,62.79-45.66c26.2-12.95,55.64-21.25,85.07-18.91
					c6.99,0.56,13.9,1.77,20.67,3.6C1505.37,417.02,1506.69,412.2,1503.59,411.35L1503.59,411.35z"/>
			</g>
		</g>
		<g>
			<g>
				<path d="M1427.55,480.33c-12.56,5.05-23.37,13.53-33.41,22.45c-9.6,8.54-18.46,18.18-24.85,29.39
					c-6.52,11.43-10.42,24.75-9.6,37.98c0.75,12.06,5.5,23.53,14.22,32.01c8.26,8.03,19.6,12.84,31.21,11.6
					c12.97-1.38,24.37-8.77,33.7-17.5c17.93-16.77,29.31-40.09,32.04-64.43c1.24-11.06,1.05-23.01-3.82-33.25
					c-2.27-4.77-5.83-9.04-10.5-11.6c-5.85-3.2-12.57-3.3-19.04-4.01c-2.99-0.33-5.94-0.91-8.73-2.04
					c-1.25-0.51-2.75,0.55-3.08,1.75c-0.39,1.43,0.49,2.57,1.75,3.08c5.82,2.36,12.14,2.17,18.26,3.06c5.31,0.77,10,2.66,13.55,6.78
					c6.52,7.55,7.46,18.79,7.18,28.32c-0.68,22.76-9.68,45.23-24.77,62.27c-7.67,8.67-17.12,16.75-28.19,20.61
					c-5.26,1.83-10.99,2.74-16.54,1.86c-5.07-0.8-9.82-2.77-14.08-5.63c-8.81-5.91-14.83-15.29-17.12-25.59
					c-2.63-11.82-0.56-24.53,4.26-35.52c4.94-11.27,12.65-21.06,21.36-29.66c4.39-4.33,9.04-8.4,13.84-12.28
					c4.94-4.01,10.11-7.77,15.66-10.9c2.6-1.47,5.29-2.81,8.06-3.92c1.25-0.5,2.13-1.67,1.75-3.08
					C1430.3,480.89,1428.81,479.83,1427.55,480.33L1427.55,480.33z"/>
			</g>
		</g>
		<g>
			<g>
				<path d="M1412.23,548.48c5.06,6.55,9.31,13.76,12.44,21.43c0.51,1.25,1.66,2.13,3.08,1.75c1.18-0.33,2.26-1.82,1.75-3.08
					c-3.3-8.09-7.59-15.7-12.94-22.62c-0.82-1.07-2.15-1.64-3.42-0.9C1412.08,545.68,1411.4,547.41,1412.23,548.48L1412.23,548.48z"
					/>
			</g>
		</g>
		<g>
			<g>
				<path d="M1410.24,546.14c-17.46,17.66-34.28,35.94-50.42,54.81c-16.17,18.92-31.66,38.42-46.43,58.45
					c-8.28,11.23-16.32,22.62-24.14,34.17c-1.81,2.67,2.52,5.18,4.32,2.52c13.79-20.39,28.31-40.29,43.54-59.63
					c15.27-19.38,31.24-38.22,47.86-56.46c9.4-10.31,19-20.42,28.81-30.34C1416.04,547.39,1412.5,543.85,1410.24,546.14
					L1410.24,546.14z"/>
			</g>
		</g>
		<g>
			<g>
				<path d="M1286.36,697.32c13.72,15.19,27.45,30.37,41.17,45.56c2.16,2.39,5.69-1.15,3.54-3.54
					c-13.72-15.19-27.45-30.37-41.17-45.56C1287.74,691.39,1284.21,694.93,1286.36,697.32L1286.36,697.32z"/>
			</g>
		</g>
		<g>
			<g>
				<path d="M1330.95,745.93c11.21-14.07,23.05-27.63,35.5-40.61c3.53-3.68,7.12-7.32,10.75-10.91c2.29-2.27-1.25-5.8-3.54-3.54
					c-12.78,12.66-24.99,25.89-36.55,39.67c-3.28,3.91-6.51,7.86-9.69,11.86c-0.84,1.06-1.03,2.51,0,3.54
					C1328.28,746.81,1330.1,747,1330.95,745.93L1330.95,745.93z"/>
			</g>
		</g>
		<g>
			<g>
				<path d="M1485.06,692.2c1.2,11.5,5.28,22.28,8.74,33.23c3.13,9.9,5.19,19.91,5.34,30.33c0.29,19.99-5.57,39.97-16.83,56.51
					c-10.8,15.87-26.75,28.22-44.61,35.17c-8.89,3.46-18.28,5.7-27.8,6.39c-10.75,0.78-21.99-0.08-31.74-5.03
					c-16.55-8.39-26.29-25.49-34.32-41.46c-1.01-2.01-2-4.03-2.99-6.05c-0.59-1.21-2.32-1.54-3.42-0.9c-1.24,0.72-1.49,2.2-0.9,3.42
					c8.27,16.96,17.49,35,33.48,45.96c9.16,6.28,20.01,8.98,31.03,9.27c10.31,0.27,20.74-1.26,30.61-4.24
					c19.14-5.79,36.72-17.18,49.45-32.65c13.33-16.19,21.16-36.42,22.76-57.3c0.8-10.4-0.03-20.95-2.48-31.09
					c-2.73-11.26-7.35-21.96-9.91-33.27c-0.62-2.74-1.12-5.51-1.41-8.3c-0.14-1.34-1.05-2.5-2.5-2.5
					C1486.32,689.7,1484.92,690.84,1485.06,692.2L1485.06,692.2z"/>
			</g>
		</g>
		<g>
			<g>
				<path d="M1339.34,800.71c13.81-18.33,27.27-36.92,40.36-55.77c3.71-5.35,7.4-10.72,11.05-16.1c1.81-2.67-2.52-5.17-4.32-2.52
					c-12.89,18.99-26.13,37.73-39.74,56.21c-3.86,5.24-7.75,10.46-11.67,15.66c-0.81,1.08-0.17,2.79,0.9,3.42
					C1337.2,802.35,1338.53,801.79,1339.34,800.71L1339.34,800.71z"/>
			</g>
		</g>
		<g>
			<g>
				<path d="M1388.39,722.19c-0.6,13.52,1.58,27.19,6.34,39.86c2.39,6.37,5.38,12.52,9,18.28c3.31,5.27,7.28,10.75,13.3,13.08
					c5.36,2.07,11.26,0.19,14.91-4.1c3.52-4.13,5.39-9.51,6.25-14.8c2.11-12.98,1.58-26.36-1.24-39.19
					c-3.16-14.39-9.32-28.17-18.09-40.01c-0.8-1.08-2.17-1.63-3.42-0.9c-1.07,0.63-1.7,2.33-0.9,3.42
					c14.53,19.63,21.58,44.34,19.61,68.69c-0.42,5.2-1.06,10.64-3.35,15.4c-1.86,3.85-4.83,7.4-9.22,7.36
					c-5.22-0.05-9.22-5.01-11.88-8.94c-3.48-5.15-6.47-10.68-8.88-16.41c-5.51-13.17-8.05-27.48-7.42-41.73
					C1393.53,718.97,1388.53,718.98,1388.39,722.19L1388.39,722.19z"/>
			</g>
		</g>
	</g>
</g>
</svg>
